<svg xmlns="http://www.w3.org/2000/svg" viewBox="0 0 900 560"><defs><linearGradient id="g" x1="0" y1="0" x2="1" y2="1"><stop stop-color="#07111c"/><stop offset=".45" stop-color="#14324a"/><stop offset="1" stop-color="#08100d"/></linearGradient><radialGradient id="r"><stop stop-color="#32e38a" stop-opacity=".5"/><stop offset="1" stop-color="#32e38a" stop-opacity="0"/></radialGradient></defs><rect width="900" height="560" fill="url(#g)"/><ellipse cx="650" cy="430" rx="360" ry="180" fill="url(#r)"/><path d="M0 410 Q450 300 900 420V560H0Z" fill="#07120d"/><g stroke="#37e897" opacity=".45" fill="none"><path d="M80 430Q450 325 820 430"/><path d="M450 360V540"/><ellipse cx="450" cy="430" rx="90" ry="55"/></g><circle cx="585" cy="315" r="32" fill="#f2f5f8" opacity=".88"/><path d="M575 294l19 4 10 17-14 20-21-4-7-19z" fill="#17202b"/><path d="M360 165c35-44 88-38 115 4l20 90-47 52-72-20-42-86z" fill="#0a0e14" opacity=".9"/><circle cx="421" cy="132" r="38" fill="#0a0e14"/><path d="M379 286l-72 123 36 15 89-119m55-24 95 100 27-29-91-129" stroke="#111822" stroke-width="31" stroke-linecap="round"/></svg>
